<svg id="_002-instagram" data-name="002-instagram" xmlns="http://www.w3.org/2000/svg" width="20.79" height="20.794" viewBox="0 0 20.79 20.794">
  <path id="Path_9" data-name="Path 9" d="M21.186,6.114A7.6,7.6,0,0,0,20.7,3.591,5.327,5.327,0,0,0,17.66.548,7.618,7.618,0,0,0,15.137.065C14.024.012,13.671,0,10.848,0S7.671.012,6.562.061A7.6,7.6,0,0,0,4.04.544,5.074,5.074,0,0,0,2.2,1.747,5.12,5.12,0,0,0,1,3.587,7.619,7.619,0,0,0,.514,6.109C.461,7.223.449,7.576.449,10.4s.012,3.177.061,4.286a7.6,7.6,0,0,0,.483,2.523A5.326,5.326,0,0,0,4.035,20.25a7.619,7.619,0,0,0,2.523.483c1.109.049,1.462.061,4.286.061s3.177-.012,4.286-.061a7.6,7.6,0,0,0,2.523-.483,5.319,5.319,0,0,0,3.043-3.043,7.624,7.624,0,0,0,.483-2.523c.049-1.109.061-1.462.061-4.286s0-3.177-.053-4.286ZM19.313,14.6a5.7,5.7,0,0,1-.358,1.93,3.449,3.449,0,0,1-1.974,1.974,5.72,5.72,0,0,1-1.93.357c-1.1.049-1.426.061-4.2.061s-3.108-.012-4.2-.061a5.7,5.7,0,0,1-1.93-.357,3.2,3.2,0,0,1-1.194-.776,3.233,3.233,0,0,1-.776-1.194,5.721,5.721,0,0,1-.357-1.93c-.049-1.1-.061-1.426-.061-4.2s.012-3.108.061-4.2a5.7,5.7,0,0,1,.357-1.93,3.161,3.161,0,0,1,.78-1.194,3.228,3.228,0,0,1,1.194-.776,5.724,5.724,0,0,1,1.93-.358c1.1-.049,1.426-.061,4.2-.061s3.108.012,4.2.061a5.7,5.7,0,0,1,1.93.358,3.2,3.2,0,0,1,1.194.776,3.232,3.232,0,0,1,.776,1.194,5.723,5.723,0,0,1,.358,1.93c.049,1.1.061,1.426.061,4.2s-.012,3.1-.061,4.2Zm0,0" transform="translate(-0.449 0)" fill="#353b48"/>
  <path id="Path_10" data-name="Path 10" d="M130.291,124.5a5.342,5.342,0,1,0,5.342,5.342A5.343,5.343,0,0,0,130.291,124.5Zm0,8.807a3.465,3.465,0,1,1,3.465-3.465A3.466,3.466,0,0,1,130.291,133.307Zm0,0" transform="translate(-119.892 -119.443)" fill="#353b48"/>
  <path id="Path_11" data-name="Path 11" d="M364.944,89.849A1.247,1.247,0,1,1,363.7,88.6,1.247,1.247,0,0,1,364.944,89.849Zm0,0" transform="translate(-347.745 -85.003)" fill="#353b48"/>
</svg>
