<svg id="_004-facebook-app-logo" data-name="004-facebook-app-logo" xmlns="http://www.w3.org/2000/svg" width="20.794" height="20.794" viewBox="0 0 20.794 20.794">
  <path id="Path_12" data-name="Path 12" d="M19.646,0H1.148A1.148,1.148,0,0,0,0,1.149v18.5A1.148,1.148,0,0,0,1.148,20.8h9.959V12.743H8.4V9.6h2.71V7.289a3.781,3.781,0,0,1,4.036-4.148,22.475,22.475,0,0,1,2.421.123V6.071H15.9c-1.3,0-1.554.619-1.554,1.528v2h3.108l-.406,3.138h-2.7v8.053h5.3a1.149,1.149,0,0,0,1.149-1.147V1.148A1.148,1.148,0,0,0,19.646,0Z" transform="translate(0 -0.001)" fill="#353b48"/>
</svg>
