<svg id="_005-twitter" data-name="005-twitter" xmlns="http://www.w3.org/2000/svg" width="25.593" height="20.794" viewBox="0 0 25.593 20.794">
  <g id="Group_6" data-name="Group 6">
    <path id="Path_14" data-name="Path 14" d="M25.593,50.462a10.939,10.939,0,0,1-3.023.829,5.217,5.217,0,0,0,2.308-2.9,10.485,10.485,0,0,1-3.327,1.27,5.246,5.246,0,0,0-9.076,3.588,5.4,5.4,0,0,0,.122,1.2A14.851,14.851,0,0,1,1.782,48.957a5.248,5.248,0,0,0,1.612,7.012,5.182,5.182,0,0,1-2.371-.646v.058a5.271,5.271,0,0,0,4.2,5.155,5.237,5.237,0,0,1-1.376.173,4.64,4.64,0,0,1-.993-.09,5.3,5.3,0,0,0,4.9,3.655,10.542,10.542,0,0,1-6.505,2.238A9.827,9.827,0,0,1,0,66.44a14.771,14.771,0,0,0,8.049,2.355,14.831,14.831,0,0,0,14.933-14.93c0-.232-.008-.456-.019-.678A10.467,10.467,0,0,0,25.593,50.462Z" transform="translate(0 -48)" fill="#353b48"/>
  </g>
</svg>
