<svg xmlns="http://www.w3.org/2000/svg" width="29.699" height="20.794" viewBox="0 0 29.699 20.794">
  <path id="_001-youtube" data-name="001-youtube" d="M29.088-2.828A3.721,3.721,0,0,0,26.47-5.446c-2.324-.636-11.62-.636-11.62-.636s-9.3,0-11.62.612A3.8,3.8,0,0,0,.612-2.828,39.205,39.205,0,0,0,0,4.315a39.061,39.061,0,0,0,.612,7.143A3.721,3.721,0,0,0,3.23,14.076c2.348.636,11.62.636,11.62.636s9.3,0,11.62-.612a3.721,3.721,0,0,0,2.618-2.618A39.218,39.218,0,0,0,29.7,4.34a37.215,37.215,0,0,0-.612-7.168Zm-17.2,11.6v-8.9l7.73,4.452Zm0,0" transform="translate(-0.001 6.082)" fill="#fff"/>
</svg>
