<?xml version="1.0" encoding="iso-8859-1"?>
<!-- Generator: Adobe Illustrator 19.0.0, SVG Export Plug-In . SVG Version: 6.00 Build 0)  -->
<svg version="1.1" id="Capa_1" xmlns="http://www.w3.org/2000/svg" xmlns:xlink="http://www.w3.org/1999/xlink" x="0px" y="0px"
	 viewBox="0 0 512 512" style="enable-background:new 0 0 512 512;" xml:space="preserve">
<g>
	<g>
		<g>
			<path d="M469.333,85.333H362.667c-5.658,0.001-11.083,2.25-15.083,6.251L320,119.168l-27.584-27.584
				c-4-4.001-9.425-6.249-15.083-6.251H42.667C19.103,85.333,0,104.436,0,128v256c0,23.564,19.103,42.667,42.667,42.667h234.667
				c5.658-0.001,11.083-2.25,15.083-6.251L320,392.832l27.584,27.584c4,4.001,9.425,6.249,15.083,6.251h106.667
				C492.898,426.667,512,407.564,512,384V128C512,104.436,492.898,85.333,469.333,85.333z M469.333,384h-97.835l-30.165-30.165V320
				h-42.667v33.835L268.501,384H42.667V128h225.835l30.165,30.165V192h42.667v-33.835L371.499,128h97.835V384z"/>
			<rect x="362.667" y="192" width="85.333" height="42.667"/>
			<rect x="362.667" y="277.333" width="85.333" height="42.667"/>
			<polygon points="249.749,185.749 219.584,155.584 171.605,203.563 95.637,152.917 71.979,188.416 140.843,234.325 
				98.901,276.267 83.819,261.184 53.653,291.349 113.984,351.68 144.149,321.515 129.067,306.432 171.008,264.491 216.917,333.355 
				252.416,309.696 201.771,233.728 			"/>
			<rect x="298.667" y="234.667" width="42.667" height="42.667"/>
		</g>
	</g>
</g>
<g>
</g>
<g>
</g>
<g>
</g>
<g>
</g>
<g>
</g>
<g>
</g>
<g>
</g>
<g>
</g>
<g>
</g>
<g>
</g>
<g>
</g>
<g>
</g>
<g>
</g>
<g>
</g>
<g>
</g>
</svg>
