<svg xmlns="http://www.w3.org/2000/svg" width="180.32" height="200.566" viewBox="0 0 180.32 200.566">
  <g id="graduate" transform="matrix(0.883, 0.469, -0.469, 0.883, 51.04, -37.497)">
    <path id="Path_52" data-name="Path 52" d="M165.7,70.817,86.147,42.75a4.949,4.949,0,0,0-3.295,0L3.3,70.817a4.951,4.951,0,0,0-.011,9.334l79.549,28.28a4.948,4.948,0,0,0,3.317,0l79.549-28.28a4.951,4.951,0,0,0-.011-9.334Z" transform="translate(0 0)" fill="#f5cb47"/>
    <path id="Path_53" data-name="Path 53" d="M445.743,240.921V197.734l-9.9,3.52v39.667a9.941,9.941,0,0,0,0,17.244V282.5a4.951,4.951,0,0,0,9.9,0V258.166a9.942,9.942,0,0,0,0-17.244Z" transform="translate(-288.634 -104.016)" fill="#f5df85"/>
    <path id="Path_54" data-name="Path 54" d="M155.139,239.168a14.816,14.816,0,0,1-4.975-.858l-44.72-15.9V244.2c0,5.33,5.561,9.838,16.528,13.4a110.7,110.7,0,0,0,33.167,4.812,110.7,110.7,0,0,0,33.167-4.812c10.967-3.56,16.528-8.067,16.528-13.4V222.412l-44.72,15.9A14.819,14.819,0,0,1,155.139,239.168Z" transform="translate(-70.639 -120.548)" fill="#f5cb47"/>
  </g>
</svg>
