<?xml version="1.0"?>
<svg xmlns="http://www.w3.org/2000/svg" viewBox="0 0 512 512" width="512" height="512"><g id="_05-bed" data-name="05-bed"><g id="linear_color" data-name="linear color"><path d="M507.992,399.843c0-.18-.017-.359-.027-.539-.014-.247-.029-.494-.058-.737-.007-.051-.006-.1-.012-.153L476,159.205V40A36.04,36.04,0,0,0,440,4H72A36.04,36.04,0,0,0,36,40V159.205L4.105,398.414c-.006.051-.005.1-.012.153-.029.243-.044.49-.058.737-.01.18-.025.359-.027.539,0,.053-.008.1-.008.157v96a12,12,0,0,0,15.8,11.384L65.947,492H446.053l46.152,15.384A12,12,0,0,0,508,496V400C508,399.947,507.993,399.9,507.992,399.843ZM58.506,172H84v36a28.032,28.032,0,0,0,28,28h96a28.032,28.032,0,0,0,28-28V188h4a27.836,27.836,0,0,0,16-5.042A27.836,27.836,0,0,0,272,188h4v20a28.032,28.032,0,0,0,28,28h96a28.032,28.032,0,0,0,28-28V172h25.494l10.389,77.913H48.117ZM244,160a4,4,0,0,1-4,4h-4V144a28.032,28.032,0,0,0-28-28H140V96a4,4,0,0,1,4-4h96a4,4,0,0,1,4,4Zm-36-20a4,4,0,0,1,4,4v64a4,4,0,0,1-4,4H112a4,4,0,0,1-4-4V144a4,4,0,0,1,4-4Zm196,68a4,4,0,0,1-4,4H304a4,4,0,0,1-4-4V144a4,4,0,0,1,4-4h96a4,4,0,0,1,4,4Zm-32-92H304a28.032,28.032,0,0,0-28,28v20h-4a4,4,0,0,1-4-4V96a4,4,0,0,1,4-4h96a4,4,0,0,1,4,4Zm95.083,157.913,3.188,23.913H41.729l3.188-23.913ZM38.529,321.826H473.471L482.294,388H29.706ZM60,40A12.013,12.013,0,0,1,72,28H440a12.013,12.013,0,0,1,12,12V148H428v-4a28.032,28.032,0,0,0-28-28h-4V96a28.032,28.032,0,0,0-28-28H272a27.836,27.836,0,0,0-16,5.042A27.836,27.836,0,0,0,240,68H144a28.032,28.032,0,0,0-28,28v20h-4a28.032,28.032,0,0,0-28,28v4H60ZM484,479.351l-32.2-10.735A12,12,0,0,0,448,468H64a12,12,0,0,0-3.8.616L28,479.351V412H484Z"/></g></g></svg>
